/* XPM */
static char *plant_03[] = {
/* columns rows colors chars-per-pixel */
"16 16 2 1 ",
"  c #954D08",
". c None",
/* pixels */
"................",
"................",
"................",
"................",
".......  .......",
".......  .......",
".......  .......",
".......  .......",
".......  .......",
".......  .......",
".......  .......",
".......  .......",
"................",
"................",
"................",
"................"
};
