/* XPM */
static char *door_02[] = {
/* columns rows colors chars-per-pixel */
"16 16 11 1 ",
"  c #161616",
". c gray11",
"X c #2C2C2C",
"o c #3A3A3A",
"O c #3C3C3C",
"+ c #4C4C4C",
"@ c #4E4E4E",
"# c #626262",
"$ c #797979",
"% c #8E8E8E",
"& c None",
/* pixels */
"&&&&&&&&&&&&&&&&",
"                ",
" %%%%%%%%%%%%%% ",
" %            % ",
" % ++++++++++ % ",
" %    OOOOOOO % ",
" % $$ XXXXXXX % ",
" % $$    .... % ",
" % $$ ##      % ",
" % $$ ## @    % ",
" % $$ ## @ o  % ",
" %            % ",
" %%%%%%%%%%%%%% ",
"                ",
"&&&&&&&&&&&&&&&&",
"&&&&&&&&&&&&&&&&"
};
