/* XPM */
static char *effect_w[] = {
/* columns rows colors chars-per-pixel */
"8 8 2 1 ",
"  c white",
". c None",
/* pixels */
"........",
"........",
"........",
".... ...",
"...   ..",
".... ...",
"........",
"........"
};
