/* XPM */
static char *wall_ur[] = {
/* columns rows colors chars-per-pixel */
"16 16 5 1 ",
"  c #434F65",
". c #6F7F9F",
"X c #8895AF",
"o c #A6B0C4",
"O c None",
/* pixels */
"OOOOOOOOOOOOOOOO",
"OOOOOOOOOOOOOOOO",
"OOOOOOOOOOOOOOOO",
"OOOOOOOOOOOOOOOO",
"XXXOOOOOOOOOOOOO",
"XXXOOOOOOOOOOOOO",
"XXX XXXXXOOOOOOO",
"ooo XXXXXOOOOOOO",
"... XXXXX XXXXX ",
"... ooooo XXXXX ",
"... ..... XXXXX ",
"... ..... ooooo ",
"    ..... ..... ",
"OOOO      ..... ",
"OOOOOOOOO ..... ",
"OOOOOOOOOO      "
};
